STARTFONT 2.1
FONT -WRI-Mathematica1Mono-Medium-R-Normal--10-100-75-75-M-60-Adobe-FontSpecific
SIZE 10 75 75
FONTBOUNDINGBOX 14 11 -1 -2
STARTPROPERTIES 16
FOUNDRY "WRI"
FAMILY_NAME "Mathematica1Mono"
WEIGHT_NAME "Medium"
SLANT "R"
SETWIDTH_NAME "Normal"
PIXEL_SIZE 10
POINT_SIZE 100
RESOLUTION_X 75
RESOLUTION_Y 75
SPACING "M"
AVERAGE_WIDTH 60
CHARSET_REGISTRY "Adobe"
CHARSET_ENCODING "FontSpecific"
FONT_DESCENT 2
FONT_ASCENT 9
DEFAULT_CHAR 32
ENDPROPERTIES
CHARS 224
STARTCHAR space
ENCODING 32
SWIDTH 263 0
DWIDTH 3 0
BBX 0 0 0 0
BITMAP
ENDCHAR
STARTCHAR Exclamation
ENCODING 33
SWIDTH 600 0
DWIDTH 6 0
BBX 1 6 2 0
BITMAP
80
80
80
80
00
80
ENDCHAR
STARTCHAR ForAll
ENCODING 34
SWIDTH 600 0
DWIDTH 6 0
BBX 5 6 0 0
BITMAP
88
50
70
50
20
20
ENDCHAR
STARTCHAR NumberSign
ENCODING 35
SWIDTH 600 0
DWIDTH 6 0
BBX 5 6 1 0
BITMAP
50
50
f8
50
f8
50
ENDCHAR
STARTCHAR Exists
ENCODING 36
SWIDTH 600 0
DWIDTH 6 0
BBX 4 6 1 0
BITMAP
f0
10
10
70
10
f0
ENDCHAR
STARTCHAR Percent
ENCODING 37
SWIDTH 600 0
DWIDTH 6 0
BBX 5 6 0 0
BITMAP
40
a8
70
d0
28
10
ENDCHAR
STARTCHAR Ampersand
ENCODING 38
SWIDTH 600 0
DWIDTH 6 0
BBX 4 5 1 0
BITMAP
60
40
50
a0
d0
ENDCHAR
STARTCHAR SmallMember
ENCODING 39
SWIDTH 600 0
DWIDTH 6 0
BBX 4 5 1 0
BITMAP
e0
10
f0
10
e0
ENDCHAR
STARTCHAR LParen
ENCODING 40
SWIDTH 600 0
DWIDTH 6 0
BBX 2 8 3 -2
BITMAP
40
80
80
80
80
80
80
40
ENDCHAR
STARTCHAR RParen
ENCODING 41
SWIDTH 600 0
DWIDTH 6 0
BBX 2 8 1 -2
BITMAP
80
40
40
40
40
40
40
80
ENDCHAR
STARTCHAR Star
ENCODING 42
SWIDTH 600 0
DWIDTH 6 0
BBX 5 4 1 0
BITMAP
20
f8
20
50
ENDCHAR
STARTCHAR Plus
ENCODING 43
SWIDTH 600 0
DWIDTH 6 0
BBX 5 5 1 0
BITMAP
20
20
f8
20
20
ENDCHAR
STARTCHAR Comma
ENCODING 44
SWIDTH 600 0
DWIDTH 6 0
BBX 2 2 2 -1
BITMAP
40
80
ENDCHAR
STARTCHAR Minus
ENCODING 45
SWIDTH 600 0
DWIDTH 6 0
BBX 4 1 1 2
BITMAP
f0
ENDCHAR
STARTCHAR Period
ENCODING 46
SWIDTH 600 0
DWIDTH 6 0
BBX 1 1 2 0
BITMAP
80
ENDCHAR
STARTCHAR Slash
ENCODING 47
SWIDTH 600 0
DWIDTH 6 0
BBX 4 7 1 -1
BITMAP
10
20
20
40
40
40
80
ENDCHAR
STARTCHAR Zero
ENCODING 48
SWIDTH 600 0
DWIDTH 6 0
BBX 4 6 1 0
BITMAP
60
90
90
90
90
60
ENDCHAR
STARTCHAR One
ENCODING 49
SWIDTH 600 0
DWIDTH 6 0
BBX 5 6 1 0
BITMAP
e0
20
20
20
20
f8
ENDCHAR
STARTCHAR Two
ENCODING 50
SWIDTH 600 0
DWIDTH 6 0
BBX 4 6 1 0
BITMAP
e0
10
10
20
50
f0
ENDCHAR
STARTCHAR Three
ENCODING 51
SWIDTH 600 0
DWIDTH 6 0
BBX 4 6 1 0
BITMAP
60
90
20
10
10
e0
ENDCHAR
STARTCHAR Four
ENCODING 52
SWIDTH 600 0
DWIDTH 6 0
BBX 4 6 1 0
BITMAP
20
60
a0
f0
20
70
ENDCHAR
STARTCHAR Five
ENCODING 53
SWIDTH 600 0
DWIDTH 6 0
BBX 4 6 1 0
BITMAP
f0
80
e0
10
10
e0
ENDCHAR
STARTCHAR Six
ENCODING 54
SWIDTH 600 0
DWIDTH 6 0
BBX 4 6 1 0
BITMAP
70
80
e0
90
90
60
ENDCHAR
STARTCHAR Seven
ENCODING 55
SWIDTH 600 0
DWIDTH 6 0
BBX 4 6 1 0
BITMAP
f0
90
10
20
20
20
ENDCHAR
STARTCHAR Eight
ENCODING 56
SWIDTH 600 0
DWIDTH 6 0
BBX 4 6 1 0
BITMAP
60
90
60
90
90
60
ENDCHAR
STARTCHAR Nine
ENCODING 57
SWIDTH 600 0
DWIDTH 6 0
BBX 4 6 1 0
BITMAP
60
90
90
70
10
e0
ENDCHAR
STARTCHAR Colon
ENCODING 58
SWIDTH 600 0
DWIDTH 6 0
BBX 1 4 2 0
BITMAP
80
00
00
80
ENDCHAR
STARTCHAR SemiColon
ENCODING 59
SWIDTH 600 0
DWIDTH 6 0
BBX 2 5 1 -1
BITMAP
40
00
00
40
80
ENDCHAR
STARTCHAR Less
ENCODING 60
SWIDTH 600 0
DWIDTH 6 0
BBX 4 5 1 0
BITMAP
10
20
c0
20
10
ENDCHAR
STARTCHAR Equal
ENCODING 61
SWIDTH 600 0
DWIDTH 6 0
BBX 4 3 1 0
BITMAP
f0
00
f0
ENDCHAR
STARTCHAR Greater
ENCODING 62
SWIDTH 600 0
DWIDTH 6 0
BBX 4 5 1 0
BITMAP
80
40
30
40
80
ENDCHAR
STARTCHAR Question
ENCODING 63
SWIDTH 600 0
DWIDTH 6 0
BBX 4 6 1 0
BITMAP
e0
10
60
40
00
40
ENDCHAR
STARTCHAR TildeFullEqual
ENCODING 64
SWIDTH 600 0
DWIDTH 6 0
BBX 4 6 1 0
BITMAP
d0
b0
00
f0
00
f0
ENDCHAR
STARTCHAR CapAlpha
ENCODING 65
SWIDTH 600 0
DWIDTH 6 0
BBX 7 6 -1 0
BITMAP
10
10
28
38
44
ee
ENDCHAR
STARTCHAR CapBeta
ENCODING 66
SWIDTH 600 0
DWIDTH 6 0
BBX 5 6 0 0
BITMAP
f0
48
70
48
48
f0
ENDCHAR
STARTCHAR CapChi
ENCODING 67
SWIDTH 600 0
DWIDTH 6 0
BBX 6 6 0 0
BITMAP
fc
48
30
30
48
ec
ENDCHAR
STARTCHAR CapDelta
ENCODING 68
SWIDTH 600 0
DWIDTH 6 0
BBX 5 6 0 0
BITMAP
20
20
20
50
50
f8
ENDCHAR
STARTCHAR CapEpsilon
ENCODING 69
SWIDTH 600 0
DWIDTH 6 0
BBX 5 6 0 0
BITMAP
f8
48
70
40
48
f8
ENDCHAR
STARTCHAR CapPhi
ENCODING 70
SWIDTH 600 0
DWIDTH 6 0
BBX 5 6 1 0
BITMAP
f8
70
a8
70
20
f8
ENDCHAR
STARTCHAR CapGamma
ENCODING 71
SWIDTH 600 0
DWIDTH 6 0
BBX 4 6 1 0
BITMAP
f0
50
40
40
40
e0
ENDCHAR
STARTCHAR CapEta
ENCODING 72
SWIDTH 600 0
DWIDTH 6 0
BBX 6 6 0 0
BITMAP
cc
48
78
48
48
cc
ENDCHAR
STARTCHAR CapIota
ENCODING 73
SWIDTH 600 0
DWIDTH 6 0
BBX 5 6 1 0
BITMAP
f8
20
20
20
20
f8
ENDCHAR
STARTCHAR CurlyTheta
ENCODING 74
SWIDTH 600 0
DWIDTH 6 0
BBX 6 6 0 0
BITMAP
10
a8
a8
9c
90
60
ENDCHAR
STARTCHAR CapKappa
ENCODING 75
SWIDTH 600 0
DWIDTH 6 0
BBX 6 6 0 0
BITMAP
ec
58
60
50
48
ec
ENDCHAR
STARTCHAR CapLambda
ENCODING 76
SWIDTH 600 0
DWIDTH 6 0
BBX 7 6 -1 0
BITMAP
10
10
28
28
44
ee
ENDCHAR
STARTCHAR CapMu
ENCODING 77
SWIDTH 600 0
DWIDTH 7 0
BBX 7 6 0 0
BITMAP
ee
6c
54
54
44
c6
ENDCHAR
STARTCHAR CapNu
ENCODING 78
SWIDTH 600 0
DWIDTH 6 0
BBX 6 6 0 0
BITMAP
dc
68
68
58
48
e8
ENDCHAR
STARTCHAR CapOmicron
ENCODING 79
SWIDTH 600 0
DWIDTH 6 0
BBX 6 6 0 0
BITMAP
78
84
84
84
84
78
ENDCHAR
STARTCHAR CapPi
ENCODING 80
SWIDTH 600 0
DWIDTH 6 0
BBX 6 6 0 0
BITMAP
fc
48
48
48
48
cc
ENDCHAR
STARTCHAR CapTheta
ENCODING 81
SWIDTH 600 0
DWIDTH 6 0
BBX 6 6 0 0
BITMAP
78
84
b4
b4
84
78
ENDCHAR
STARTCHAR CapRho
ENCODING 82
SWIDTH 600 0
DWIDTH 6 0
BBX 5 6 1 0
BITMAP
f0
48
48
70
40
e0
ENDCHAR
STARTCHAR CapSigma
ENCODING 83
SWIDTH 600 0
DWIDTH 6 0
BBX 4 6 1 0
BITMAP
f0
50
20
40
90
f0
ENDCHAR
STARTCHAR CapTau
ENCODING 84
SWIDTH 600 0
DWIDTH 6 0
BBX 5 6 1 0
BITMAP
f8
a8
20
20
20
70
ENDCHAR
STARTCHAR CapUpsilon
ENCODING 85
SWIDTH 600 0
DWIDTH 6 0
BBX 7 6 0 0
BITMAP
c6
28
10
10
10
38
ENDCHAR
STARTCHAR FinalSigma
ENCODING 86
SWIDTH 600 0
DWIDTH 6 0
BBX 4 6 1 -1
BITMAP
60
90
80
80
70
10
ENDCHAR
STARTCHAR CapOmega
ENCODING 87
SWIDTH 600 0
DWIDTH 6 0
BBX 6 6 0 0
BITMAP
78
84
84
84
48
cc
ENDCHAR
STARTCHAR CapXi
ENCODING 88
SWIDTH 600 0
DWIDTH 6 0
BBX 5 6 0 0
BITMAP
f8
88
50
70
88
f8
ENDCHAR
STARTCHAR CapPsi
ENCODING 89
SWIDTH 600 0
DWIDTH 6 0
BBX 5 6 1 0
BITMAP
f8
20
a8
70
20
f8
ENDCHAR
STARTCHAR CapZeta
ENCODING 90
SWIDTH 600 0
DWIDTH 6 0
BBX 4 6 1 0
BITMAP
f0
90
20
40
90
f0
ENDCHAR
STARTCHAR LBracket
ENCODING 91
SWIDTH 600 0
DWIDTH 6 0
BBX 2 8 3 -2
BITMAP
c0
80
80
80
80
80
80
c0
ENDCHAR
STARTCHAR Therefore
ENCODING 92
SWIDTH 600 0
DWIDTH 6 0
BBX 5 5 0 0
BITMAP
20
00
00
00
88
ENDCHAR
STARTCHAR RBracket
ENCODING 93
SWIDTH 600 0
DWIDTH 6 0
BBX 2 8 1 -2
BITMAP
c0
40
40
40
40
40
40
c0
ENDCHAR
STARTCHAR Perpendicular
ENCODING 94
SWIDTH 600 0
DWIDTH 6 0
BBX 5 5 1 0
BITMAP
20
20
20
20
f8
ENDCHAR
STARTCHAR Underbar
ENCODING 95
SWIDTH 600 0
DWIDTH 6 0
BBX 5 1 1 -1
BITMAP
f8
ENDCHAR
STARTCHAR Hat
ENCODING 96
SWIDTH 600 0
DWIDTH 6 0
BBX 3 2 2 0
BITMAP
c0
a0
ENDCHAR
STARTCHAR Alpha
ENCODING 97
SWIDTH 600 0
DWIDTH 6 0
BBX 5 5 0 0
BITMAP
68
90
90
90
68
ENDCHAR
STARTCHAR Beta
ENCODING 98
SWIDTH 600 0
DWIDTH 6 0
BBX 5 7 0 -1
BITMAP
30
48
50
48
48
b0
80
ENDCHAR
STARTCHAR Chi
ENCODING 99
SWIDTH 600 0
DWIDTH 6 0
BBX 6 6 0 -1
BITMAP
64
18
10
30
50
9c
ENDCHAR
STARTCHAR Delta
ENCODING 100
SWIDTH 600 0
DWIDTH 6 0
BBX 4 6 1 0
BITMAP
30
40
60
90
90
60
ENDCHAR
STARTCHAR Epsilon
ENCODING 101
SWIDTH 600 0
DWIDTH 6 0
BBX 4 5 1 0
BITMAP
70
80
f0
80
70
ENDCHAR
STARTCHAR Phi
ENCODING 102
SWIDTH 600 0
DWIDTH 6 0
BBX 5 7 1 -1
BITMAP
10
70
a8
a8
a8
70
40
ENDCHAR
STARTCHAR Gamma
ENCODING 103
SWIDTH 600 0
DWIDTH 6 0
BBX 7 6 -1 -1
BITMAP
c2
34
18
18
28
30
ENDCHAR
STARTCHAR Eta
ENCODING 104
SWIDTH 600 0
DWIDTH 6 0
BBX 6 7 0 -2
BITMAP
ec
34
24
44
48
08
08
ENDCHAR
STARTCHAR Iota
ENCODING 105
SWIDTH 600 0
DWIDTH 6 0
BBX 3 5 2 0
BITMAP
40
40
80
a0
c0
ENDCHAR
STARTCHAR CurlyPhi
ENCODING 106
SWIDTH 600 0
DWIDTH 6 0
BBX 5 6 1 -1
BITMAP
58
a8
a8
a8
70
20
ENDCHAR
STARTCHAR Kappa
ENCODING 107
SWIDTH 600 0
DWIDTH 6 0
BBX 6 5 0 0
BITMAP
6c
30
20
50
cc
ENDCHAR
STARTCHAR Lambda
ENCODING 108
SWIDTH 600 0
DWIDTH 6 0
BBX 6 6 -1 0
BITMAP
30
08
08
18
28
c4
ENDCHAR
STARTCHAR Mu
ENCODING 109
SWIDTH 600 0
DWIDTH 6 0
BBX 6 7 0 -2
BITMAP
44
44
48
88
fc
80
80
ENDCHAR
STARTCHAR Nu
ENCODING 110
SWIDTH 600 0
DWIDTH 6 0
BBX 5 5 0 0
BITMAP
88
50
30
20
20
ENDCHAR
STARTCHAR Omicron
ENCODING 111
SWIDTH 600 0
DWIDTH 6 0
BBX 5 5 1 0
BITMAP
70
88
88
88
70
ENDCHAR
STARTCHAR Pi
ENCODING 112
SWIDTH 600 0
DWIDTH 6 0
BBX 6 5 0 0
BITMAP
7c
28
28
48
84
ENDCHAR
STARTCHAR Theta
ENCODING 113
SWIDTH 600 0
DWIDTH 6 0
BBX 6 6 0 0
BITMAP
38
44
fc
84
88
70
ENDCHAR
STARTCHAR Rho
ENCODING 114
SWIDTH 600 0
DWIDTH 6 0
BBX 5 6 0 -1
BITMAP
30
48
48
48
b0
80
ENDCHAR
STARTCHAR Sigma
ENCODING 115
SWIDTH 600 0
DWIDTH 6 0
BBX 5 5 1 0
BITMAP
78
90
90
90
60
ENDCHAR
STARTCHAR Tau
ENCODING 116
SWIDTH 600 0
DWIDTH 6 0
BBX 4 5 1 0
BITMAP
f0
20
40
40
70
ENDCHAR
STARTCHAR Upsilon
ENCODING 117
SWIDTH 600 0
DWIDTH 6 0
BBX 5 5 1 0
BITMAP
48
48
90
90
e0
ENDCHAR
STARTCHAR CurlyPi
ENCODING 118
SWIDTH 600 0
DWIDTH 6 0
BBX 7 5 0 0
BITMAP
fe
44
94
94
78
ENDCHAR
STARTCHAR Omega
ENCODING 119
SWIDTH 600 0
DWIDTH 6 0
BBX 6 5 0 0
BITMAP
44
84
94
94
78
ENDCHAR
STARTCHAR Xi
ENCODING 120
SWIDTH 600 0
DWIDTH 6 0
BBX 5 8 1 -2
BITMAP
38
40
70
80
80
60
10
20
ENDCHAR
STARTCHAR Psi
ENCODING 121
SWIDTH 600 0
DWIDTH 6 0
BBX 5 7 1 -1
BITMAP
20
68
68
a8
d0
f0
40
ENDCHAR
STARTCHAR Zeta
ENCODING 122
SWIDTH 600 0
DWIDTH 6 0
BBX 6 7 0 -1
BITMAP
3c
20
40
40
70
88
70
ENDCHAR
STARTCHAR LBrace
ENCODING 123
SWIDTH 600 0
DWIDTH 6 0
BBX 3 8 2 -2
BITMAP
20
40
40
40
80
40
40
20
ENDCHAR
STARTCHAR VertBar
ENCODING 124
SWIDTH 600 0
DWIDTH 6 0
BBX 1 7 3 -1
BITMAP
80
80
80
80
80
80
80
ENDCHAR
STARTCHAR RBrace
ENCODING 125
SWIDTH 600 0
DWIDTH 6 0
BBX 3 8 1 -2
BITMAP
80
40
40
40
20
40
40
80
ENDCHAR
STARTCHAR Tilde
ENCODING 126
SWIDTH 600 0
DWIDTH 6 0
BBX 4 2 1 1
BITMAP
d0
b0
ENDCHAR
STARTCHAR DEL
ENCODING 127
SWIDTH 263 0
DWIDTH 3 0
BBX 0 0 0 0
BITMAP
ENDCHAR
STARTCHAR FractionBarExt
ENCODING 128
SWIDTH 240 0
DWIDTH 2 0
BBX 2 1 0 2
BITMAP
c0
ENDCHAR
STARTCHAR EscapeChar
ENCODING 129
SWIDTH 291 0
DWIDTH 3 0
BBX 1 5 1 -1
BITMAP
80
00
80
00
80
ENDCHAR
STARTCHAR SelectPlaceholder
ENCODING 130
SWIDTH 600 0
DWIDTH 6 0
BBX 5 5 1 0
BITMAP
f8
f8
f8
f8
f8
ENDCHAR
STARTCHAR Placeholder
ENCODING 131
SWIDTH 600 0
DWIDTH 6 0
BBX 5 5 1 0
BITMAP
f8
88
88
88
f8
ENDCHAR
STARTCHAR Continuation
ENCODING 132
SWIDTH 600 0
DWIDTH 6 0
BBX 3 5 2 0
BITMAP
80
00
40
00
20
ENDCHAR
STARTCHAR Skeleton
ENCODING 133
SWIDTH 600 0
DWIDTH 6 0
BBX 3 2 2 1
BITMAP
e0
e0
ENDCHAR
STARTCHAR LSkeleton
ENCODING 134
SWIDTH 1200 0
DWIDTH 12 0
BBX 9 5 2 0
BITMAP
0880
3300
cc00
3300
0880
ENDCHAR
STARTCHAR RSkeleton
ENCODING 135
SWIDTH 1200 0
DWIDTH 12 0
BBX 9 5 1 0
BITMAP
8800
6600
1980
6600
8800
ENDCHAR
STARTCHAR Spacer
ENCODING 136
SWIDTH 600 0
DWIDTH 6 0
BBX 6 1 0 -1
BITMAP
fc
ENDCHAR
STARTCHAR Cross
ENCODING 137
SWIDTH 600 0
DWIDTH 6 0
BBX 3 3 2 1
BITMAP
a0
40
a0
ENDCHAR
STARTCHAR DblEqual
ENCODING 138
SWIDTH 798 0
DWIDTH 8 0
BBX 6 3 1 0
BITMAP
fc
00
fc
ENDCHAR
STARTCHAR Grave
ENCODING 139
SWIDTH 600 0
DWIDTH 6 0
BBX 2 2 2 0
BITMAP
80
40
ENDCHAR
STARTCHAR Acute
ENCODING 140
SWIDTH 600 0
DWIDTH 6 0
BBX 2 2 2 0
BITMAP
40
80
ENDCHAR
STARTCHAR DoubleAcute
ENCODING 141
SWIDTH 600 0
DWIDTH 6 0
BBX 4 2 1 0
BITMAP
50
a0
ENDCHAR
STARTCHAR OverTilde
ENCODING 142
SWIDTH 600 0
DWIDTH 6 0
BBX 4 2 1 0
BITMAP
d0
b0
ENDCHAR
STARTCHAR OverBar
ENCODING 143
SWIDTH 600 0
DWIDTH 6 0
BBX 4 1 1 0
BITMAP
f0
ENDCHAR
STARTCHAR DblUpDownArrow
ENCODING 144
SWIDTH 600 0
DWIDTH 6 0
BBX 5 7 1 0
BITMAP
70
d8
50
50
50
d8
70
ENDCHAR
STARTCHAR DblUpExtens1
ENCODING 145
SWIDTH 600 0
DWIDTH 6 0
BBX 3 2 2 0
BITMAP
a0
a0
ENDCHAR
STARTCHAR DblLongLArrow
ENCODING 146
SWIDTH 1200 0
DWIDTH 12 0
BBX 10 5 1 -1
BITMAP
4000
ffc0
8000
ffc0
4000
ENDCHAR
STARTCHAR DblExtens
ENCODING 147
SWIDTH 200 0
DWIDTH 2 0
BBX 2 3 0 0
BITMAP
c0
00
c0
ENDCHAR
STARTCHAR DblLongRArrow
ENCODING 148
SWIDTH 1200 0
DWIDTH 12 0
BBX 10 5 1 -1
BITMAP
0080
ffc0
0040
ffc0
0080
ENDCHAR
STARTCHAR DblLRArrow2
ENCODING 149
SWIDTH 790 0
DWIDTH 8 0
BBX 8 5 0 -1
BITMAP
42
ff
81
ff
42
ENDCHAR
STARTCHAR DblLongLRArrow
ENCODING 150
SWIDTH 1200 0
DWIDTH 12 0
BBX 12 5 0 -1
BITMAP
4020
fff0
8010
fff0
4020
ENDCHAR
STARTCHAR UpDownArrow
ENCODING 151
SWIDTH 600 0
DWIDTH 6 0
BBX 5 7 1 0
BITMAP
70
a8
20
20
20
a8
70
ENDCHAR
STARTCHAR LongLArrow
ENCODING 152
SWIDTH 1200 0
DWIDTH 12 0
BBX 12 5 0 0
BITMAP
4000
8000
fff0
8000
4000
ENDCHAR
STARTCHAR LongRArrow
ENCODING 153
SWIDTH 1200 0
DWIDTH 12 0
BBX 12 5 0 0
BITMAP
0020
0010
fff0
0010
0020
ENDCHAR
STARTCHAR LongLRArrow
ENCODING 154
SWIDTH 1200 0
DWIDTH 12 0
BBX 12 5 0 0
BITMAP
4020
8020
fff0
8020
4020
ENDCHAR
STARTCHAR ColonEqual
ENCODING 155
SWIDTH 696 0
DWIDTH 7 0
BBX 6 3 0 0
BITMAP
bc
00
bc
ENDCHAR
STARTCHAR Diamond2
ENCODING 156
SWIDTH 600 0
DWIDTH 6 0
BBX 5 5 1 0
BITMAP
20
50
88
50
20
ENDCHAR
STARTCHAR NotSquareSprsetEqual
ENCODING 157
SWIDTH 600 0
DWIDTH 6 0
BBX 4 6 1 -1
BITMAP
e0
10
10
e0
00
f0
ENDCHAR
STARTCHAR AtSign
ENCODING 158
SWIDTH 600 0
DWIDTH 6 0
BBX 6 6 0 0
BITMAP
78
84
bc
bc
80
70
ENDCHAR
STARTCHAR Solidmedsqr
ENCODING 159
SWIDTH 600 0
DWIDTH 6 0
BBX 4 4 1 1
BITMAP
f0
f0
f0
f0
ENDCHAR
STARTCHAR OverDot
ENCODING 160
SWIDTH 600 0
DWIDTH 6 0
BBX 1 1 2 1
BITMAP
80
ENDCHAR
STARTCHAR CurlyCapUpsilon
ENCODING 161
SWIDTH 600 0
DWIDTH 6 0
BBX 7 6 0 0
BITMAP
c6
28
10
10
10
38
ENDCHAR
STARTCHAR Prime
ENCODING 162
SWIDTH 371 0
DWIDTH 4 0
BBX 3 3 1 1
BITMAP
60
40
80
ENDCHAR
STARTCHAR LessEqual
ENCODING 163
SWIDTH 600 0
DWIDTH 6 0
BBX 4 4 1 0
BITMAP
10
e0
10
f0
ENDCHAR
STARTCHAR Fraction
ENCODING 164
SWIDTH 600 0
DWIDTH 6 0
BBX 6 7 0 0
BITMAP
04
08
10
30
20
40
c0
ENDCHAR
STARTCHAR Infinity
ENCODING 165
SWIDTH 695 0
DWIDTH 7 0
BBX 6 3 0 1
BITMAP
68
94
68
ENDCHAR
STARTCHAR RuleDelayed
ENCODING 166
SWIDTH 750 0
DWIDTH 8 0
BBX 7 5 0 0
BITMAP
84
02
3e
02
84
ENDCHAR
STARTCHAR ClubSuit
ENCODING 167
SWIDTH 600 0
DWIDTH 6 0
BBX 5 6 1 0
BITMAP
70
70
f8
f8
f8
20
ENDCHAR
STARTCHAR DiamondSuit
ENCODING 168
SWIDTH 600 0
DWIDTH 6 0
BBX 5 5 0 0
BITMAP
20
50
88
50
20
ENDCHAR
STARTCHAR HeartSuit
ENCODING 169
SWIDTH 600 0
DWIDTH 6 0
BBX 5 6 1 0
BITMAP
d8
a8
88
50
50
20
ENDCHAR
STARTCHAR SpadeSuit
ENCODING 170
SWIDTH 600 0
DWIDTH 6 0
BBX 5 6 1 0
BITMAP
20
70
f8
f8
f8
20
ENDCHAR
STARTCHAR LRArrow
ENCODING 171
SWIDTH 790 0
DWIDTH 8 0
BBX 8 5 0 0
BITMAP
42
82
ff
82
42
ENDCHAR
STARTCHAR LArrow
ENCODING 172
SWIDTH 720 0
DWIDTH 7 0
BBX 7 5 0 0
BITMAP
40
80
fe
80
40
ENDCHAR
STARTCHAR UpArrow
ENCODING 173
SWIDTH 600 0
DWIDTH 6 0
BBX 5 6 1 0
BITMAP
70
a8
20
20
20
20
ENDCHAR
STARTCHAR RArrow
ENCODING 174
SWIDTH 720 0
DWIDTH 7 0
BBX 7 5 0 0
BITMAP
04
02
fe
02
04
ENDCHAR
STARTCHAR DownArrow
ENCODING 175
SWIDTH 600 0
DWIDTH 6 0
BBX 5 6 1 0
BITMAP
20
20
20
20
a8
70
ENDCHAR
STARTCHAR Degree
ENCODING 176
SWIDTH 600 0
DWIDTH 6 0
BBX 3 3 2 4
BITMAP
e0
a0
e0
ENDCHAR
STARTCHAR PlusMinus
ENCODING 177
SWIDTH 600 0
DWIDTH 6 0
BBX 5 7 1 0
BITMAP
20
20
f8
20
20
00
f8
ENDCHAR
STARTCHAR DoublePrime
ENCODING 178
SWIDTH 569 0
DWIDTH 6 0
BBX 5 3 1 1
BITMAP
78
50
a0
ENDCHAR
STARTCHAR GreaterEqual
ENCODING 179
SWIDTH 600 0
DWIDTH 6 0
BBX 4 4 1 0
BITMAP
80
70
80
f0
ENDCHAR
STARTCHAR Multiply
ENCODING 180
SWIDTH 600 0
DWIDTH 6 0
BBX 5 5 1 0
BITMAP
88
50
20
50
88
ENDCHAR
STARTCHAR Proportional
ENCODING 181
SWIDTH 600 0
DWIDTH 6 0
BBX 5 3 1 1
BITMAP
58
a0
58
ENDCHAR
STARTCHAR PartialDiff
ENCODING 182
SWIDTH 600 0
DWIDTH 6 0
BBX 5 6 1 0
BITMAP
70
08
78
88
90
60
ENDCHAR
STARTCHAR Bullet
ENCODING 183
SWIDTH 600 0
DWIDTH 6 0
BBX 3 3 2 1
BITMAP
e0
e0
e0
ENDCHAR
STARTCHAR Divide
ENCODING 184
SWIDTH 600 0
DWIDTH 6 0
BBX 5 5 1 0
BITMAP
20
00
f8
00
20
ENDCHAR
STARTCHAR NotEqual
ENCODING 185
SWIDTH 600 0
DWIDTH 6 0
BBX 4 5 1 -1
BITMAP
20
f0
40
f0
40
ENDCHAR
STARTCHAR Equivalence
ENCODING 186
SWIDTH 600 0
DWIDTH 6 0
BBX 4 5 1 0
BITMAP
f0
00
f0
00
f0
ENDCHAR
STARTCHAR Approxequal
ENCODING 187
SWIDTH 600 0
DWIDTH 6 0
BBX 4 4 1 0
BITMAP
d0
b0
d0
b0
ENDCHAR
STARTCHAR Ellipsis
ENCODING 188
SWIDTH 988 0
DWIDTH 10 0
BBX 7 1 1 0
BITMAP
92
ENDCHAR
STARTCHAR ArrowVertEx
ENCODING 189
SWIDTH 600 0
DWIDTH 6 0
BBX 1 4 3 -1
BITMAP
80
80
80
80
ENDCHAR
STARTCHAR ArrowHorizEx
ENCODING 190
SWIDTH 200 0
DWIDTH 2 0
BBX 4 1 -1 2
BITMAP
f0
ENDCHAR
STARTCHAR CarriageReturn
ENCODING 191
SWIDTH 628 0
DWIDTH 6 0
BBX 5 7 0 -1
BITMAP
08
08
48
88
f8
80
40
ENDCHAR
STARTCHAR Aleph
ENCODING 192
SWIDTH 600 0
DWIDTH 6 0
BBX 4 6 1 0
BITMAP
90
50
d0
a0
a0
90
ENDCHAR
STARTCHAR IFraktur
ENCODING 193
SWIDTH 270 0
DWIDTH 3 0
BBX 3 6 0 0
BITMAP
c0
40
40
40
40
60
ENDCHAR
STARTCHAR RFraktur
ENCODING 194
SWIDTH 587 0
DWIDTH 6 0
BBX 6 6 0 0
BITMAP
f0
08
48
70
58
ec
ENDCHAR
STARTCHAR Weierstrass
ENCODING 195
SWIDTH 600 0
DWIDTH 6 0
BBX 4 6 1 -1
BITMAP
20
d0
90
90
a0
80
ENDCHAR
STARTCHAR CircleMultiply
ENCODING 196
SWIDTH 600 0
DWIDTH 6 0
BBX 6 6 0 0
BITMAP
78
cc
b4
b4
cc
78
ENDCHAR
STARTCHAR CirclePlus
ENCODING 197
SWIDTH 600 0
DWIDTH 6 0
BBX 6 6 0 0
BITMAP
78
d4
94
fc
94
78
ENDCHAR
STARTCHAR EmptySet
ENCODING 198
SWIDTH 600 0
DWIDTH 6 0
BBX 6 8 0 -1
BITMAP
08
78
94
94
a4
a4
78
40
ENDCHAR
STARTCHAR Union
ENCODING 199
SWIDTH 580 0
DWIDTH 6 0
BBX 4 7 1 0
BITMAP
90
90
90
90
90
90
60
ENDCHAR
STARTCHAR Intersection
ENCODING 200
SWIDTH 580 0
DWIDTH 6 0
BBX 4 7 1 0
BITMAP
60
90
90
90
90
90
90
ENDCHAR
STARTCHAR ProperSuperset
ENCODING 201
SWIDTH 600 0
DWIDTH 6 0
BBX 4 5 1 0
BITMAP
e0
10
10
10
e0
ENDCHAR
STARTCHAR nbspace
ENCODING 202
SWIDTH 263 0
DWIDTH 3 0
BBX 0 0 0 0
BITMAP
ENDCHAR
STARTCHAR NotSubset
ENCODING 203
SWIDTH 600 0
DWIDTH 6 0
BBX 4 7 1 -1
BITMAP
20
70
a0
a0
c0
70
40
ENDCHAR
STARTCHAR ProperSubset
ENCODING 204
SWIDTH 600 0
DWIDTH 6 0
BBX 4 5 1 0
BITMAP
70
80
80
80
70
ENDCHAR
STARTCHAR ReflexSubset
ENCODING 205
SWIDTH 600 0
DWIDTH 6 0
BBX 4 6 1 -1
BITMAP
70
80
80
70
00
f0
ENDCHAR
STARTCHAR Element
ENCODING 206
SWIDTH 600 0
DWIDTH 6 0
BBX 4 5 1 0
BITMAP
70
80
f0
80
70
ENDCHAR
STARTCHAR NotElement
ENCODING 207
SWIDTH 600 0
DWIDTH 6 0
BBX 4 7 1 -1
BITMAP
20
70
a0
f0
c0
70
40
ENDCHAR
STARTCHAR Angle
ENCODING 208
SWIDTH 600 0
DWIDTH 6 0
BBX 4 5 1 0
BITMAP
40
40
80
80
f0
ENDCHAR
STARTCHAR Gradient
ENCODING 209
SWIDTH 600 0
DWIDTH 6 0
BBX 5 6 0 0
BITMAP
f8
50
50
50
20
20
ENDCHAR
STARTCHAR RegTM
ENCODING 210
SWIDTH 600 0
DWIDTH 6 0
BBX 6 6 0 0
BITMAP
78
cc
b4
b4
fc
78
ENDCHAR
STARTCHAR Copyright
ENCODING 211
SWIDTH 600 0
DWIDTH 6 0
BBX 6 6 0 0
BITMAP
78
cc
b4
b4
cc
78
ENDCHAR
STARTCHAR TM
ENCODING 212
SWIDTH 600 0
DWIDTH 6 0
BBX 6 3 0 3
BITMAP
f4
5c
54
ENDCHAR
STARTCHAR Product
ENCODING 213
SWIDTH 631 0
DWIDTH 6 0
BBX 6 7 0 0
BITMAP
fc
48
48
48
48
48
cc
ENDCHAR
STARTCHAR Radical
ENCODING 214
SWIDTH 600 0
DWIDTH 6 0
BBX 7 10 -1 -2
BITMAP
02
02
04
04
64
a4
18
18
08
08
ENDCHAR
STARTCHAR DotMath
ENCODING 215
SWIDTH 600 0
DWIDTH 6 0
BBX 1 1 2 2
BITMAP
80
ENDCHAR
STARTCHAR LogicalNot
ENCODING 216
SWIDTH 600 0
DWIDTH 6 0
BBX 4 2 1 1
BITMAP
f0
10
ENDCHAR
STARTCHAR Wedge
ENCODING 217
SWIDTH 600 0
DWIDTH 6 0
BBX 5 6 1 0
BITMAP
20
70
50
50
d8
88
ENDCHAR
STARTCHAR Vee
ENCODING 218
SWIDTH 600 0
DWIDTH 6 0
BBX 5 6 1 0
BITMAP
88
d8
50
50
70
20
ENDCHAR
STARTCHAR DblLRArrow
ENCODING 219
SWIDTH 790 0
DWIDTH 8 0
BBX 8 5 0 -1
BITMAP
42
ff
81
ff
42
ENDCHAR
STARTCHAR DblLArrow
ENCODING 220
SWIDTH 720 0
DWIDTH 7 0
BBX 5 5 1 -1
BITMAP
40
f8
80
f8
40
ENDCHAR
STARTCHAR DblUpArrow
ENCODING 221
SWIDTH 600 0
DWIDTH 6 0
BBX 5 6 1 0
BITMAP
70
d8
50
50
50
50
ENDCHAR
STARTCHAR DblRArrow
ENCODING 222
SWIDTH 720 0
DWIDTH 7 0
BBX 5 5 1 -1
BITMAP
10
f8
08
f8
10
ENDCHAR
STARTCHAR DblDownArrow
ENCODING 223
SWIDTH 600 0
DWIDTH 6 0
BBX 5 6 1 0
BITMAP
50
50
50
50
d8
60
ENDCHAR
STARTCHAR Lozenge
ENCODING 224
SWIDTH 600 0
DWIDTH 6 0
BBX 3 5 2 0
BITMAP
40
a0
a0
a0
40
ENDCHAR
STARTCHAR LAngle
ENCODING 225
SWIDTH 600 0
DWIDTH 6 0
BBX 3 7 2 -1
BITMAP
20
40
40
80
40
40
20
ENDCHAR
STARTCHAR Diffd
ENCODING 226
SWIDTH 598 0
DWIDTH 7 0
BBX 7 7 0 0
BITMAP
3c
14
74
94
94
94
7e
ENDCHAR
STARTCHAR Expe
ENCODING 227
SWIDTH 600 0
DWIDTH 6 0
BBX 5 5 0 0
BITMAP
70
a8
b8
a0
78
ENDCHAR
STARTCHAR Imagi
ENCODING 228
SWIDTH 600 0
DWIDTH 6 0
BBX 5 7 1 0
BITMAP
20
00
f0
50
50
50
f8
ENDCHAR
STARTCHAR Sum
ENCODING 229
SWIDTH 602 0
DWIDTH 6 0
BBX 6 7 0 0
BITMAP
fc
44
20
10
20
44
fc
ENDCHAR
STARTCHAR LParenTop
ENCODING 230
SWIDTH 600 0
DWIDTH 6 0
BBX 2 9 3 -1
BITMAP
40
40
80
80
80
80
80
80
80
ENDCHAR
STARTCHAR LParenEx
ENCODING 231
SWIDTH 600 0
DWIDTH 6 0
BBX 1 2 3 -1
BITMAP
80
80
ENDCHAR
STARTCHAR LParenBot
ENCODING 232
SWIDTH 600 0
DWIDTH 6 0
BBX 2 9 3 0
BITMAP
80
80
80
80
80
80
80
40
40
ENDCHAR
STARTCHAR LBracketTop
ENCODING 233
SWIDTH 600 0
DWIDTH 6 0
BBX 2 3 3 -1
BITMAP
c0
80
80
ENDCHAR
STARTCHAR LBracketEx
ENCODING 234
SWIDTH 600 0
DWIDTH 6 0
BBX 1 5 3 -1
BITMAP
80
80
80
80
80
ENDCHAR
STARTCHAR LBracketBot
ENCODING 235
SWIDTH 600 0
DWIDTH 6 0
BBX 2 2 3 0
BITMAP
80
c0
ENDCHAR
STARTCHAR LBraceTop
ENCODING 236
SWIDTH 600 0
DWIDTH 6 0
BBX 3 7 3 -1
BITMAP
60
80
80
80
80
80
80
ENDCHAR
STARTCHAR LBraceMid
ENCODING 237
SWIDTH 600 0
DWIDTH 6 0
BBX 3 8 1 -2
BITMAP
20
20
20
40
80
40
20
20
ENDCHAR
STARTCHAR LBraceBot
ENCODING 238
SWIDTH 600 0
DWIDTH 6 0
BBX 3 9 3 0
BITMAP
80
80
80
80
80
80
80
80
60
ENDCHAR
STARTCHAR BraceEx
ENCODING 239
SWIDTH 600 0
DWIDTH 6 0
BBX 1 4 3 -1
BITMAP
80
80
80
80
ENDCHAR
STARTCHAR Slot
ENCODING 240
SWIDTH 600 0
DWIDTH 6 0
BBX 6 6 0 0
BITMAP
48
fc
48
48
48
fc
ENDCHAR
STARTCHAR RAngle
ENCODING 241
SWIDTH 600 0
DWIDTH 6 0
BBX 3 7 1 -1
BITMAP
80
c0
40
20
40
c0
80
ENDCHAR
STARTCHAR Intergral
ENCODING 242
SWIDTH 590 0
DWIDTH 6 0
BBX 5 11 1 -2
BITMAP
18
20
20
20
20
20
20
20
20
20
c0
ENDCHAR
STARTCHAR IntegralTop
ENCODING 243
SWIDTH 796 0
DWIDTH 8 0
BBX 6 11 1 -2
BITMAP
04
04
04
04
04
04
04
04
08
88
70
ENDCHAR
STARTCHAR IntegralEx
ENCODING 244
SWIDTH 796 0
DWIDTH 8 0
BBX 1 8 6 0
BITMAP
80
80
80
80
80
80
80
80
ENDCHAR
STARTCHAR IntegralBot
ENCODING 245
SWIDTH 796 0
DWIDTH 8 0
BBX 7 10 6 -1
BITMAP
1c
62
40
80
80
80
80
80
80
80
ENDCHAR
STARTCHAR RParenTop
ENCODING 246
SWIDTH 600 0
DWIDTH 6 0
BBX 2 9 1 -1
BITMAP
80
80
40
40
40
40
40
40
40
ENDCHAR
STARTCHAR RParenEx
ENCODING 247
SWIDTH 600 0
DWIDTH 6 0
BBX 1 4 2 -1
BITMAP
80
80
80
80
ENDCHAR
STARTCHAR RParenBot
ENCODING 248
SWIDTH 600 0
DWIDTH 6 0
BBX 1 9 2 0
BITMAP
80
80
80
80
80
80
80
80
80
ENDCHAR
STARTCHAR RBracketTop
ENCODING 249
SWIDTH 600 0
DWIDTH 6 0
BBX 2 3 1 -1
BITMAP
c0
40
40
ENDCHAR
STARTCHAR RBracketEx
ENCODING 250
SWIDTH 600 0
DWIDTH 6 0
BBX 1 5 2 -1
BITMAP
80
80
80
80
80
ENDCHAR
STARTCHAR RBracketBot
ENCODING 251
SWIDTH 600 0
DWIDTH 6 0
BBX 2 2 1 0
BITMAP
40
c0
ENDCHAR
STARTCHAR RBraceTop
ENCODING 252
SWIDTH 600 0
DWIDTH 6 0
BBX 3 7 1 -1
BITMAP
c0
20
20
20
20
20
20
ENDCHAR
STARTCHAR RBraceMid
ENCODING 253
SWIDTH 600 0
DWIDTH 6 0
BBX 3 8 3 -2
BITMAP
80
80
80
40
20
40
80
80
ENDCHAR
STARTCHAR RBraceBot
ENCODING 254
SWIDTH 600 0
DWIDTH 6 0
BBX 3 9 1 0
BITMAP
20
20
20
20
20
20
20
20
c0
ENDCHAR
STARTCHAR Wolf
ENCODING 255
SWIDTH 835 0
DWIDTH 8 0
BBX 8 7 0 -2
BITMAP
1c
1c
24
2a
5f
48
88
ENDCHAR
ENDFONT
